# xmcd
#
# Track frame offsets:
#	150
#	17970
#	33764
#	50556
#	64904
#	88143
#	112443
#	127151
#	142532
#	164833
#
# Disc length: 2392 seconds
# Revision: 0
# Processed by: cddbd v1.5.2PL0 Copyright (c) Steve Scherf et al.
# Submitted via: dBpowerAMP V12.0
#
DISCID=9409560a
DTITLE=Willie And The Dixons - Willie And The Dixons - Vaporizer!
DYEAR=2015
DGENRE=Blues
TTITLE0=Low
TTITLE1=Dodging Bullets
TTITLE2=Evil
TTITLE3=Conditional Happiness
TTITLE4=The Battle
TTITLE5=Kindhearted Woman
TTITLE6=Right Next Door
TTITLE7=Why Did I Bother
TTITLE8=Twenty Minutes From Anywhere
TTITLE9=Little Boy Lost (Blues For Mum)
EXTD=
EXTT0=
EXTT1=
EXTT2=
EXTT3=
EXTT4=
EXTT5=
EXTT6=
EXTT7=
EXTT8=
EXTT9=
PLAYORDER=
